<?xml version="1.0" standalone="no"?>
<!DOCTYPE svg PUBLIC "-//W3C//DTD SVG 20010904//EN"
 "http://www.w3.org/TR/2001/REC-SVG-20010904/DTD/svg10.dtd">
<svg version="1.0" xmlns="http://www.w3.org/2000/svg"
 width="420.000000pt" height="420.000000pt" viewBox="0 0 420.000000 420.000000"
 preserveAspectRatio="xMidYMid meet">
<metadata>
Created by potrace 1.14, written by Peter Selinger 2001-2017
</metadata>
<g transform="translate(0.000000,420.000000) scale(0.100000,-0.100000)"
fill="#000000" stroke="none">
<path d="M1428 3860 c-18 -23 -36 -32 -78 -40 -37 -7 -64 -20 -85 -39 -16 -16
-42 -33 -57 -36 -65 -16 -148 -139 -148 -221 0 -25 -7 -51 -19 -65 -22 -29
-51 -110 -51 -145 0 -14 -7 -42 -17 -61 -13 -29 -14 -41 -5 -68 10 -26 9 -40
-3 -75 -18 -50 -19 -105 -5 -147 9 -25 4 -60 -30 -199 -49 -199 -66 -352 -55
-479 10 -111 19 -87 29 75 11 181 56 377 118 506 45 94 94 144 180 185 66 30
81 34 158 33 66 -1 105 -8 175 -31 154 -52 460 -85 635 -70 143 12 410 3 483
-17 78 -21 218 -108 272 -169 73 -80 100 -174 111 -379 5 -111 15 -162 60
-328 4 -14 15 -37 26 -52 10 -14 18 -31 18 -37 0 -6 5 -11 11 -11 5 0 8 -4 5
-9 -3 -5 1 -11 9 -15 8 -3 15 -16 15 -28 0 -20 3 -19 17 10 8 18 17 31 19 29
5 -5 -36 -109 -48 -124 -6 -7 -8 -13 -4 -13 3 0 18 18 32 40 20 30 30 37 35
28 5 -7 9 -9 9 -5 0 9 44 292 67 437 11 65 18 162 18 255 0 189 -9 220 -103
361 -30 45 -32 53 -27 106 10 95 -6 131 -98 225 -44 46 -84 83 -87 83 -4 0
-38 21 -76 47 -38 25 -123 72 -189 105 -66 32 -136 68 -155 79 -124 75 -259
129 -324 129 -27 0 -66 13 -115 38 -70 34 -82 37 -171 39 -75 1 -111 7 -169
28 -73 26 -75 26 -113 9 -37 -17 -38 -17 -113 15 -95 40 -126 40 -157 1z"/>
<path d="M1121 2473 c-33 -10 -69 -31 -92 -53 -33 -31 -39 -43 -39 -79 0 -26
5 -44 14 -47 7 -3 46 5 85 16 106 33 176 26 284 -28 47 -23 90 -42 96 -42 16
0 38 40 45 83 7 35 4 42 -27 70 -78 74 -259 113 -366 80z"/>
<path d="M2215 2354 c-38 -7 -81 -22 -95 -32 -33 -25 -37 -76 -10 -121 20 -31
24 -33 63 -28 23 3 76 13 117 22 116 26 217 8 375 -67 69 -32 87 -34 109 -12
42 42 -4 123 -95 170 -157 79 -302 100 -464 68z"/>
<path d="M1188 2080 c-91 -16 -174 -77 -209 -154 -18 -39 -6 -41 32 -6 41 37
115 85 148 95 l23 7 -26 -44 c-19 -33 -26 -59 -26 -97 0 -57 31 -131 54 -131
8 0 22 -3 31 -6 9 -4 15 -3 14 2 -4 22 3 23 32 9 65 -34 151 7 184 87 12 32
19 39 26 27 14 -22 11 -72 -7 -97 -9 -13 -11 -22 -4 -22 21 0 42 72 38 132 -3
45 -2 55 8 47 7 -6 16 -25 20 -42 4 -18 9 -27 11 -20 6 17 -20 74 -52 111 -39
46 -94 79 -162 97 -62 16 -66 16 -135 5z m100 -101 c11 -17 11 -25 -3 -45 -17
-26 -27 -29 -54 -14 -25 13 -33 37 -21 61 14 26 61 25 78 -2z"/>
<path d="M862 1935 c0 -16 2 -22 5 -12 2 9 2 23 0 30 -3 6 -5 -1 -5 -18z"/>
<path d="M2207 1940 c-96 -37 -157 -109 -157 -185 1 -28 2 -27 26 20 45 88
104 134 189 149 l40 7 -39 -32 c-74 -62 -97 -166 -53 -244 16 -29 30 -41 50
-43 21 -3 26 0 21 12 -8 20 -4 20 57 0 47 -16 50 -16 96 7 52 26 93 77 93 118
1 25 1 25 15 7 19 -26 19 -69 -1 -107 -23 -45 -10 -46 17 -3 17 29 23 52 23
101 l0 64 63 -63 c66 -65 77 -65 42 4 -41 81 -146 162 -252 193 -69 21 -171
18 -230 -5z m142 -74 c7 -8 11 -27 9 -43 -2 -22 -9 -29 -31 -31 -51 -6 -74 33
-40 70 19 22 46 23 62 4z"/>
<path d="M837 1789 c-10 -57 -24 -138 -32 -179 -23 -116 -29 -266 -16 -345 7
-38 30 -123 52 -187 71 -210 147 -332 312 -499 96 -97 126 -121 202 -161 106
-55 166 -73 298 -93 119 -18 330 -13 437 10 41 9 84 18 94 20 33 7 120 37 131
45 6 4 21 11 35 15 84 25 249 116 315 175 95 84 215 229 248 300 4 8 21 38 37
65 53 88 110 214 130 288 58 206 102 458 82 465 -7 2 -12 12 -12 23 0 10 -5
18 -12 17 -30 -7 -50 -41 -79 -139 -72 -244 -183 -452 -282 -533 -125 -101
-235 -106 -385 -16 -123 72 -132 74 -362 72 -113 -2 -225 -5 -250 -7 -66 -5
-205 27 -368 84 -165 58 -227 64 -314 31 -116 -44 -192 -34 -240 31 -57 76
-61 163 -22 427 28 192 29 254 1 91z m517 -658 c187 -80 244 -93 421 -98 88
-3 222 0 298 7 77 6 141 9 144 6 9 -8 -129 -44 -212 -55 -141 -19 -142 -20
-18 -15 77 3 124 1 128 -6 3 -5 -1 -10 -9 -10 -25 0 -19 -26 6 -27 27 -2 73
25 112 66 24 25 32 28 44 19 41 -34 45 -129 8 -192 -57 -97 -201 -184 -320
-193 -57 -5 -70 -3 -110 21 -31 18 -70 29 -123 36 -43 5 -109 15 -146 21 -52
9 -70 10 -79 1 -17 -17 -74 -15 -116 5 -58 27 -169 143 -197 206 -44 102 -42
172 7 235 18 21 68 13 162 -27z"/>
<path d="M1266 1109 c15 -27 45 -66 67 -85 38 -34 39 -35 59 -18 18 17 18 19
2 31 -10 7 -15 15 -12 18 5 5 19 1 93 -31 82 -34 254 -65 350 -63 22 1 -14 7
-80 15 -173 20 -320 70 -441 150 -28 19 -54 34 -58 34 -4 0 5 -23 20 -51z"/>
<path d="M1541 1834 c0 -11 3 -14 6 -6 3 7 2 16 -1 19 -3 4 -6 -2 -5 -13z"/>
<path d="M1680 1150 c0 -5 5 -10 11 -10 5 0 7 5 4 10 -3 6 -8 10 -11 10 -2 0
-4 -4 -4 -10z"/>
</g>
</svg>
